<?xml version="1.0" standalone="no"?>
<!DOCTYPE svg PUBLIC "-//W3C//DTD SVG 20010904//EN"
 "http://www.w3.org/TR/2001/REC-SVG-20010904/DTD/svg10.dtd">
<svg version="1.0" xmlns="http://www.w3.org/2000/svg"
 width="1920.000000pt" height="1348.000000pt" viewBox="0 0 1920.000000 1348.000000"
 preserveAspectRatio="xMidYMid meet">

<g transform="translate(0.000000,1348.000000) scale(0.100000,-0.100000)"
fill="#000000" stroke="none">
<path d="M2680 7261 c-126 -40 -216 -130 -259 -259 l-21 -61 0 -3471 0 -3470
351 0 352 0 211 122 c116 67 229 134 251 148 22 15 75 46 118 69 102 53 117
48 117 -42 0 -34 -4 -66 -8 -72 -33 -45 -184 -137 -199 -121 -3 2 -19 -3 -36
-13 -142 -80 -151 -86 -134 -89 15 -3 89 33 155 76 21 14 22 13 22 -17 0 -23
-7 -34 -27 -45 -25 -14 37 -15 597 -15 l625 -1 85 48 c47 27 275 157 507 290
232 133 429 242 437 242 20 0 20 -14 1 -30 -8 -7 -12 -16 -9 -21 3 -5 0 -9 -6
-9 -6 0 -15 -11 -22 -25 -6 -13 -14 -23 -18 -20 -3 2 -15 -10 -25 -28 -18 -30
-49 -69 -87 -109 -10 -10 -18 -21 -18 -24 0 -4 -8 -14 -17 -23 -10 -9 -22 -23
-28 -32 -40 -64 -67 -99 -74 -99 -6 0 -13 -9 -16 -20 -4 -11 -10 -18 -15 -15
-4 3 -11 -3 -15 -13 -3 -9 -5 -18 -3 -19 2 -1 -8 -13 -21 -27 -14 -14 -22 -26
-19 -26 5 0 98 51 226 124 35 20 66 36 68 36 2 0 4 -16 4 -35 0 -33 -4 -36
-105 -95 -58 -34 -105 -64 -105 -66 0 -2 819 -4 1820 -4 l1820 0 0 2945 c0
1620 -2 2945 -5 2945 -3 0 -58 -31 -122 -70 -65 -38 -121 -70 -125 -70 -4 0
-35 -40 -68 -90 -33 -49 -65 -90 -70 -90 -7 0 -9 159 -8 447 l3 447 198 115
198 114 -3 168 c-1 93 -6 169 -11 169 -5 0 -21 -9 -37 -20 l-27 -20 -7 70 c-8
81 -1 99 48 125 32 17 36 24 36 57 l0 38 -3212 -1 c-3044 0 -3216 -1 -3268
-18z m5534 -167 c12 -5 16 -21 16 -70 0 -60 -2 -64 -28 -78 -16 -8 -41 -31
-57 -51 -22 -30 -32 -36 -54 -32 -19 4 -47 -7 -106 -42 -44 -26 -154 -90 -245
-142 -91 -51 -166 -97 -168 -101 -2 -5 -9 -8 -16 -8 -8 0 -25 -9 -40 -21 -14
-11 -26 -17 -26 -13 0 4 -11 -3 -25 -16 -14 -13 -27 -22 -29 -19 -2 2 -7 36
-11 74 -4 51 -3 75 7 87 16 22 727 436 750 437 9 1 23 -2 32 -5z m-184 -303
c0 -28 -14 -37 -261 -180 -144 -83 -263 -151 -265 -151 -2 0 -4 12 -4 28 0 24
13 34 128 100 70 40 188 108 262 151 74 44 136 79 138 80 1 1 2 -12 2 -28z
m504 -147 c14 -14 16 -67 16 -439 0 -233 -4 -426 -9 -429 -4 -3 -36 4 -69 15
l-61 21 -93 -55 c-144 -84 -191 -106 -218 -103 -14 1 -31 -3 -39 -8 -12 -9
-13 -7 -9 5 5 12 1 16 -15 14 -12 -1 -23 -4 -24 -5 -8 -8 -30 -4 -42 8 -8 8
-17 10 -23 4 -11 -11 -68 -3 -68 9 0 6 -10 5 -21 -2 -12 -6 -19 -7 -15 -1 3 5
-12 8 -37 6 -42 -3 -71 -18 -352 -177 -44 -25 -83 -43 -87 -41 -5 3 -8 18 -8
33 0 25 14 36 139 110 97 57 138 87 134 97 -6 17 -23 19 -23 3 0 -8 -4 -8 -13
-1 -9 8 -66 -19 -225 -109 -116 -65 -216 -119 -220 -119 -5 0 -9 14 -8 32 1
31 8 37 145 118 80 47 146 90 148 96 2 6 -5 14 -17 17 -11 3 -18 1 -15 -3 3
-5 1 -11 -5 -15 -5 -3 -10 1 -10 10 0 14 -7 16 -45 12 -29 -4 -43 -2 -40 4 8
12 -18 7 -27 -5 -3 -5 -13 -2 -22 7 -12 12 -23 14 -40 7 -13 -5 -27 -5 -32 0
-13 13 -73 20 -80 9 -3 -5 -12 -2 -20 6 -19 18 -48 20 -38 3 5 -8 1 -7 -10 2
-17 14 -17 15 4 30 40 27 259 156 1140 667 173 100 320 183 327 183 6 0 19 -7
27 -16z m-4844 -2320 l0 -137 -44 5 c-24 3 -51 1 -60 -4 -29 -16 -76 1 -97 35
-55 92 13 202 104 168 26 -10 27 -10 27 29 0 39 1 40 35 40 l35 0 0 -136z
m-460 96 c0 -28 -3 -30 -35 -30 l-35 0 0 -100 0 -100 -35 0 -35 0 0 100 0 100
-30 0 c-32 0 -47 18 -36 45 4 12 26 15 106 15 l100 0 0 -30z m2240 0 c0 -13 7
-20 20 -20 16 0 20 -7 20 -30 0 -23 -4 -30 -20 -30 -17 0 -20 -7 -20 -44 0
-39 3 -45 23 -48 16 -2 23 -11 25 -30 3 -26 1 -28 -35 -28 -21 0 -43 4 -50 8
-18 11 -33 58 -33 103 0 21 -4 39 -10 39 -5 0 -10 11 -10 24 0 14 5 28 10 31
6 3 10 15 10 26 0 15 7 19 35 19 28 0 35 -4 35 -20z m470 1 c0 -10 9 -21 20
-24 14 -3 20 -14 20 -31 0 -19 -5 -26 -20 -26 -17 0 -20 -7 -20 -45 0 -38 3
-45 20 -45 16 0 20 -7 20 -30 0 -28 -2 -30 -39 -30 -52 0 -71 26 -71 97 0 29
-4 53 -10 53 -5 0 -10 14 -10 30 0 17 5 30 10 30 6 0 10 9 10 20 0 16 7 20 35
20 28 0 35 -4 35 -19z m-2524 -45 c32 -22 46 -78 31 -124 -35 -109 -207 -78
-207 37 0 42 28 86 64 102 27 11 82 4 112 -15z m424 14 c13 -7 21 -7 25 0 3 5
19 10 36 10 l29 0 0 -105 0 -105 -52 -1 c-29 0 -66 -1 -81 -1 -38 -1 -76 38
-83 84 -14 82 61 153 126 118z m274 1 c4 -5 18 -5 35 2 58 21 114 -30 114
-103 0 -72 -57 -123 -115 -102 -27 10 -27 10 -30 -42 l-3 -51 -35 0 -35 0 -3
140 c-1 76 0 145 2 152 6 15 62 18 70 4z m310 -1 c30 -11 66 -65 66 -97 0 -22
-4 -23 -70 -23 -68 0 -91 -12 -49 -25 12 -4 26 -2 32 4 12 12 77 15 77 3 0
-20 -33 -52 -65 -62 -74 -24 -135 23 -135 105 0 48 15 74 53 90 39 17 58 18
91 5z m152 -5 c5 -13 8 -13 27 0 32 22 37 19 37 -25 0 -36 -3 -40 -24 -40 -29
0 -36 -16 -36 -81 l0 -49 -35 0 -35 0 0 98 c0 54 3 102 7 105 12 13 54 7 59
-8z m204 5 c13 -7 21 -7 25 0 3 5 19 10 36 10 l29 0 0 -127 c-1 -85 -5 -133
-13 -144 -20 -26 -53 -39 -97 -39 -33 0 -48 6 -71 29 -16 16 -29 34 -29 40 0
14 63 14 77 0 18 -18 58 -7 61 18 3 21 1 22 -26 12 -62 -22 -118 31 -116 110
1 37 7 49 33 73 33 29 60 35 91 18z m198 -60 c4 -84 22 -108 56 -74 11 11 16
35 16 80 l0 65 33 -3 32 -3 3 -103 3 -102 -58 0 c-32 0 -71 0 -88 0 -50 -1
-65 29 -65 127 l0 84 33 -3 32 -3 3 -65z m237 61 c3 -6 17 -6 36 1 38 13 82
-4 98 -38 6 -14 11 -56 11 -94 l0 -70 -35 0 -35 0 0 64 c0 71 -17 99 -48 79
-13 -7 -18 -28 -20 -77 l-3 -66 -34 0 -35 0 0 98 c0 54 3 102 7 105 10 10 51
8 58 -2z m440 0 c11 -5 25 -4 32 1 7 5 22 8 35 6 22 -3 23 -7 26 -106 l3 -104
-43 3 c-24 2 -53 0 -66 -5 -14 -5 -35 -3 -53 5 -73 29 -80 156 -12 193 31 17
49 18 78 7z m515 -16 c22 -20 44 -80 35 -95 -3 -5 -36 -10 -71 -10 -48 0 -65
-3 -62 -12 6 -16 48 -23 48 -9 0 6 18 11 40 11 44 0 47 -5 25 -37 -35 -50
-135 -50 -170 0 -17 25 -20 99 -5 127 26 49 118 63 160 25z m125 16 c3 -6 17
-6 35 0 23 8 37 7 61 -5 28 -14 34 -14 61 0 35 18 78 11 104 -17 12 -14 19
-42 22 -99 l5 -80 -37 0 -36 0 0 59 c0 41 -5 65 -16 75 -34 35 -54 8 -54 -71
l0 -63 -35 0 -35 0 0 65 c0 51 -4 66 -18 74 -36 19 -52 -4 -52 -74 l0 -65 -35
0 -35 0 0 98 c0 54 3 102 7 105 10 10 51 8 58 -2z m455 -43 c0 -66 8 -95 26
-102 33 -13 43 5 46 77 l3 72 33 3 32 3 0 -106 0 -105 -52 -1 c-29 0 -66 0
-82 -1 -50 -1 -66 30 -66 128 l0 84 30 0 c30 0 30 -1 30 -52z m245 43 c3 -6
17 -6 35 0 23 8 37 7 61 -5 28 -14 34 -14 61 0 35 18 78 11 104 -17 12 -14 19
-42 22 -99 l5 -80 -37 0 -36 0 0 59 c0 41 -5 65 -16 75 -34 35 -54 8 -54 -71
l0 -63 -35 0 -35 0 0 65 c0 51 -4 66 -18 74 -36 19 -52 -4 -52 -74 l0 -65 -35
0 -35 0 0 98 c0 54 3 102 7 105 10 10 51 8 58 -2z m429 -1 c18 -6 26 -6 26 1
0 6 15 9 33 7 l32 -3 3 -104 3 -104 -44 5 c-25 3 -52 1 -61 -4 -29 -16 -76 1
-97 35 -34 57 -21 134 28 161 34 18 44 19 77 6z m-3054 -509 c0 -10 9 -21 20
-24 14 -3 20 -14 20 -31 0 -19 -5 -26 -20 -26 -17 0 -20 -7 -20 -45 0 -38 3
-45 20 -45 16 0 20 -7 20 -30 0 -28 -2 -30 -39 -30 -52 0 -71 26 -71 97 0 40
-4 53 -15 53 -9 0 -15 9 -15 25 0 14 7 28 15 31 8 4 15 15 15 25 0 15 7 19 35
19 28 0 35 -4 35 -19z m-1263 -32 c8 -8 17 -8 31 0 30 16 32 15 32 -28 0 -36
-3 -40 -27 -43 -27 -3 -28 -6 -31 -65 l-3 -63 -34 0 -35 0 0 105 0 105 28 0
c15 0 33 -5 39 -11z m220 1 c33 -12 63 -56 63 -94 0 -26 -1 -26 -72 -26 -69 0
-71 -1 -55 -17 14 -15 21 -15 37 -5 27 16 80 16 80 -1 0 -8 -12 -24 -26 -38
-37 -35 -104 -34 -140 2 -37 38 -44 104 -14 142 35 44 73 55 127 37z m234 -16
c30 -27 25 -54 -10 -54 -17 0 -33 5 -36 10 -7 12 -35 14 -35 2 0 -4 19 -14 42
-22 73 -26 84 -90 21 -116 -58 -25 -118 -3 -136 49 -5 14 0 17 28 17 18 0 37
-4 40 -10 7 -12 45 -13 45 -2 0 5 -21 15 -47 23 -75 22 -86 83 -22 117 30 16
85 9 110 -14z m121 16 c2 -7 14 -6 35 2 60 23 116 -27 116 -103 0 -77 -73
-131 -128 -95 l-25 16 0 -60 0 -61 -32 3 -33 3 -3 140 c-1 76 0 145 2 152 6
15 63 18 68 3z m317 -1 c38 -13 61 -54 61 -107 0 -71 -71 -116 -145 -92 -42
14 -65 52 -65 107 1 44 15 66 56 88 35 18 51 19 93 4z m214 0 c21 -9 47 -46
47 -64 0 -3 -16 -5 -35 -5 -19 0 -35 5 -35 10 0 6 -9 10 -20 10 -36 0 -21 -16
27 -31 76 -23 86 -84 19 -117 -34 -17 -90 -8 -117 19 -30 30 -24 49 16 49 19
0 35 -4 35 -10 0 -5 9 -10 20 -10 34 0 22 16 -20 29 -70 21 -88 85 -31 116 32
17 62 19 94 4z m337 1 c13 -7 21 -7 25 0 3 5 19 10 36 10 l29 0 0 -105 0 -105
-52 -1 c-29 0 -65 -1 -80 -1 -82 -3 -114 130 -46 187 32 27 58 31 88 15z m188
-142 c28 -28 -4 -77 -42 -62 -25 10 -31 46 -10 61 22 16 36 17 52 1z m692
-374 c0 -8 -7 -14 -15 -14 -15 0 -21 21 -9 33 10 9 24 -2 24 -19z m1390 6 c0
-5 -5 -12 -11 -16 -14 -8 -33 11 -25 25 7 11 36 4 36 -9z m-2940 -81 c0 -84
-1 -91 -19 -86 -10 2 -25 0 -34 -4 -40 -23 -96 36 -82 88 8 35 50 58 80 45 24
-11 25 -10 25 18 0 20 5 30 15 30 12 0 15 -17 15 -91z m1610 1 c0 -73 -3 -90
-15 -90 -12 0 -15 17 -15 90 0 73 3 90 15 90 12 0 15 -17 15 -90z m60 64 c0
-21 3 -24 20 -19 13 4 31 0 45 -9 22 -14 25 -24 25 -71 0 -41 -4 -55 -14 -55
-11 0 -16 15 -18 53 -3 48 -5 52 -28 52 -23 0 -25 -4 -28 -52 -2 -38 -7 -53
-18 -53 -11 0 -14 18 -14 90 0 73 3 90 15 90 9 0 15 -10 15 -26z m820 0 c0
-21 3 -24 20 -19 13 4 31 0 45 -9 22 -14 25 -24 25 -71 0 -41 -4 -55 -14 -55
-11 0 -16 15 -18 53 -3 48 -5 52 -28 52 -23 0 -25 -4 -28 -52 -2 -38 -7 -53
-18 -53 -11 0 -14 18 -14 90 0 73 3 90 15 90 9 0 15 -10 15 -26z m-3223 -69
c23 -65 27 -85 16 -85 -7 0 -16 7 -19 15 -4 10 -20 15 -45 15 -28 0 -39 -4
-39 -15 0 -8 -7 -15 -15 -15 -8 0 -15 4 -15 9 0 9 48 140 56 153 14 23 33 -1
61 -77z m2200 65 c3 -11 12 -20 19 -20 8 0 14 -4 14 -10 0 -5 -7 -10 -15 -10
-11 0 -15 -12 -15 -45 0 -33 4 -45 15 -45 8 0 15 -5 15 -11 0 -6 -12 -9 -27
-7 -26 3 -28 7 -31 53 -2 27 -9 53 -15 58 -9 7 -9 10 1 14 6 2 12 13 12 24 0
25 20 25 27 -1z m2083 0 c0 -11 7 -20 15 -20 8 0 15 -4 15 -10 0 -5 -7 -10
-15 -10 -11 0 -15 -12 -15 -45 0 -33 4 -45 15 -45 8 0 15 -5 15 -11 0 -6 -12
-9 -27 -7 -26 3 -28 7 -31 53 -2 27 -9 53 -15 58 -9 7 -9 10 1 14 6 2 12 13
12 24 0 10 7 19 15 19 8 0 15 -9 15 -20z m-4129 -21 c11 -5 24 -22 30 -36 21
-55 -35 -118 -81 -93 -17 9 -19 6 -22 -27 -2 -20 -9 -38 -15 -41 -10 -3 -13
21 -13 97 l0 100 33 4 c17 2 36 5 40 5 5 1 17 -3 28 -9z m129 -3 c0 -7 -9 -16
-20 -19 -17 -4 -20 -14 -20 -56 0 -39 -4 -51 -15 -51 -12 0 -15 14 -15 64 0
63 1 65 28 69 15 2 30 5 35 6 4 0 7 -5 7 -13z m118 -3 c12 -10 22 -29 24 -43
3 -24 0 -25 -50 -28 -45 -3 -52 -5 -42 -18 15 -17 34 -18 60 -2 25 16 38 2 17
-19 -24 -24 -76 -21 -99 6 -25 32 -23 67 7 96 28 29 55 32 83 8z m150 1 c18
-12 22 -25 22 -70 0 -40 -4 -54 -14 -54 -11 0 -16 15 -18 53 -3 48 -5 52 -28
52 -23 0 -25 -4 -28 -52 -2 -38 -7 -53 -18 -53 -11 0 -14 15 -14 64 0 70 -5
64 65 75 6 0 21 -6 33 -15z m325 5 c14 0 17 -10 17 -65 0 -48 -3 -64 -12 -61
-7 2 -23 0 -36 -4 -24 -9 -60 3 -74 25 -4 6 -8 26 -8 44 0 44 33 76 68 67 15
-3 35 -6 45 -6z m216 -6 c11 -10 22 -29 23 -43 3 -24 0 -25 -50 -28 -45 -3
-52 -5 -42 -18 15 -17 34 -18 60 -2 25 16 38 2 17 -19 -24 -24 -76 -21 -99 6
-25 32 -23 67 7 96 29 29 55 32 84 8z m209 1 c25 -17 29 -34 7 -34 -8 0 -15 5
-15 10 0 6 -11 10 -25 10 -33 0 -52 -38 -36 -69 14 -25 38 -27 63 -4 20 18 34
12 24 -12 -10 -26 -53 -37 -85 -20 -33 16 -45 52 -32 88 17 45 60 58 99 31z
m157 -9 c47 -46 19 -118 -45 -118 -64 0 -92 72 -45 118 31 32 59 32 90 0z
m145 10 c11 -13 15 -13 33 0 29 20 43 19 67 -5 25 -25 29 -120 6 -120 -11 0
-16 15 -18 52 -2 43 -7 54 -22 56 -27 6 -46 -24 -46 -70 0 -21 -4 -38 -10 -38
-5 0 -10 19 -10 43 0 53 -11 70 -41 65 -21 -3 -24 -9 -27 -55 -2 -38 -7 -53
-18 -53 -11 0 -14 15 -14 64 0 63 1 65 28 69 52 8 60 7 72 -8z m265 -10 c27
-26 31 -54 14 -86 -14 -27 -55 -42 -79 -29 -17 9 -19 6 -22 -27 -2 -20 -9 -38
-15 -41 -10 -3 -13 21 -13 98 0 95 1 102 19 97 10 -2 25 -1 32 4 23 14 39 10
64 -16z m129 16 c3 -5 15 -7 26 -4 19 5 20 0 20 -61 0 -72 7 -66 -74 -67 -35
-1 -54 16 -62 58 -5 26 -1 37 19 57 26 26 61 34 71 17z m146 -4 c0 -7 -9 -18
-20 -25 -15 -9 -20 -23 -20 -57 0 -33 -4 -45 -15 -45 -12 0 -15 14 -15 66 0
61 1 66 20 61 11 -3 23 -1 26 4 8 13 24 11 24 -4z m486 -12 c40 -40 29 -59
-34 -63 -45 -3 -52 -5 -42 -18 15 -17 34 -18 60 -2 21 13 36 6 25 -12 -14 -23
-55 -31 -84 -15 -63 32 -39 133 32 135 10 0 29 -11 43 -25z m211 0 c19 -17 23
-24 13 -25 -9 0 -21 5 -27 11 -6 6 -21 9 -34 7 -21 -3 -24 -9 -24 -43 0 -35 3
-40 24 -43 15 -3 30 3 38 14 9 12 16 15 23 8 7 -7 5 -15 -7 -26 -32 -28 -58
-30 -86 -7 -42 32 -34 105 13 122 28 10 39 7 67 -18z m147 4 c51 -40 22 -122
-44 -122 -64 0 -92 72 -45 118 30 30 54 31 89 4z m156 1 c25 -25 29 -120 6
-120 -11 0 -16 15 -18 53 -3 46 -6 52 -27 55 -30 5 -41 -12 -41 -65 0 -32 -4
-43 -15 -43 -12 0 -15 14 -15 66 0 61 1 66 20 61 11 -3 23 -1 26 4 9 16 43 10
64 -11z m306 -5 c40 -40 29 -59 -34 -63 -45 -3 -52 -5 -42 -18 15 -17 34 -18
60 -2 25 16 38 2 17 -19 -20 -20 -73 -21 -92 -2 -8 8 -17 29 -21 46 -5 26 -1
37 19 57 33 33 61 33 93 1z m145 6 c30 -24 18 -39 -17 -21 -31 17 -57 4 -62
-29 -7 -45 35 -66 70 -34 21 19 31 14 22 -11 -16 -41 -91 -39 -113 3 -17 32
-13 60 14 86 29 30 55 32 86 6z m199 9 c13 -7 27 -7 44 1 20 10 30 9 51 -5 22
-14 25 -24 25 -71 0 -41 -4 -55 -14 -55 -11 0 -16 15 -18 53 -3 48 -5 52 -28
52 -23 0 -25 -4 -28 -52 -2 -37 -7 -53 -17 -53 -10 0 -15 16 -17 53 -3 46 -6
52 -27 55 -30 5 -41 -12 -41 -65 0 -32 -4 -43 -15 -43 -12 0 -15 14 -15 66 0
60 2 66 19 61 10 -2 25 -1 32 4 18 11 26 11 49 -1z m256 -15 c40 -40 29 -59
-34 -63 -45 -3 -52 -5 -42 -18 15 -17 34 -18 60 -2 21 13 36 6 25 -12 -14 -23
-55 -31 -84 -15 -63 32 -39 133 32 135 10 0 29 -11 43 -25z m146 8 c13 -12 18
-30 18 -70 0 -29 -4 -53 -10 -53 -5 0 -10 19 -10 43 0 53 -11 70 -41 65 -21
-3 -24 -9 -27 -55 -2 -38 -7 -53 -18 -53 -11 0 -14 15 -14 64 0 63 1 65 28 69
51 8 55 7 74 -10z m242 -4 c65 -51 1 -153 -73 -114 -65 33 -39 130 35 134 6 1
23 -8 38 -20z m-2154 -54 c0 -51 -3 -65 -15 -65 -12 0 -15 14 -15 65 0 51 3
65 15 65 12 0 15 -14 15 -65z m1380 0 c0 -37 -4 -65 -10 -65 -6 0 -10 28 -10
65 0 37 4 65 10 65 6 0 10 -28 10 -65z m-2823 -275 c3 -11 12 -20 19 -20 8 0
14 -4 14 -10 0 -5 -7 -10 -15 -10 -11 0 -15 -12 -15 -45 0 -33 4 -45 15 -45 8
0 15 -5 15 -11 0 -6 -12 -9 -27 -7 -26 3 -28 7 -31 53 -2 27 -9 53 -15 58 -9
7 -9 10 1 14 6 2 12 13 12 24 0 25 20 25 27 -1z m-863 -21 c27 -13 43 -39 23
-39 -7 0 -18 5 -24 11 -6 6 -21 9 -34 7 -21 -3 -24 -9 -24 -43 0 -35 3 -40 24
-43 15 -3 30 3 38 14 9 12 16 15 23 8 12 -12 -13 -38 -46 -48 -32 -10 -74 28
-74 67 0 37 7 49 35 65 25 14 29 14 59 1z m160 -10 c66 -52 1 -153 -74 -114
-51 26 -49 104 3 125 33 13 42 12 71 -11z m146 11 c13 -7 27 -7 44 1 20 10 30
9 51 -5 22 -14 25 -24 25 -71 0 -41 -4 -55 -14 -55 -11 0 -16 15 -18 53 -3 48
-5 52 -28 52 -23 0 -25 -4 -28 -52 -2 -37 -7 -53 -17 -53 -10 0 -15 16 -17 53
-3 46 -6 52 -27 55 -30 5 -41 -12 -41 -65 0 -32 -4 -43 -15 -43 -12 0 -15 14
-15 66 0 60 2 66 19 61 10 -2 25 -1 32 4 18 11 26 11 49 -1z m311 -1 c69 -36
26 -145 -51 -130 -54 10 -68 85 -24 120 30 24 46 26 75 10z m369 -3 c0 -8 -9
-18 -20 -21 -16 -5 -20 -15 -20 -56 0 -37 -4 -49 -15 -49 -12 0 -15 14 -15 64
0 63 1 65 28 69 15 2 30 5 35 6 4 0 7 -5 7 -13z m128 3 c21 1 22 -3 22 -63 l0
-65 -32 -1 c-18 0 -42 0 -53 -1 -26 0 -55 36 -55 68 0 35 45 77 73 68 12 -4
32 -6 45 -6z m136 -5 c20 -20 20 -34 1 -34 -8 0 -15 5 -15 10 0 6 -9 10 -20
10 -32 0 -23 -26 13 -36 25 -8 33 -16 35 -37 3 -21 -2 -29 -22 -37 -30 -11
-76 5 -76 27 0 15 16 17 25 3 9 -15 45 -12 45 3 0 7 -16 19 -35 26 -27 9 -35
18 -35 36 0 40 54 59 84 29z m220 -5 c28 -22 34 -56 15 -90 -14 -27 -55 -42
-79 -29 -17 9 -19 6 -22 -27 -2 -21 -7 -38 -13 -38 -6 0 -11 42 -13 99 -3 93
-2 98 17 93 10 -2 25 -1 32 4 21 13 34 11 63 -12z m150 0 c17 -14 26 -29 24
-43 -3 -18 -11 -21 -51 -24 -32 -2 -47 -7 -44 -15 5 -16 47 -21 60 -8 6 6 17
11 25 11 12 0 12 -3 1 -16 -30 -36 -87 -36 -111 0 -22 32 -2 97 32 109 27 10
37 7 64 -14z m127 11 c23 -13 26 -40 4 -40 -8 0 -15 5 -15 10 0 6 -9 10 -20
10 -32 0 -23 -26 13 -36 25 -8 33 -16 35 -37 4 -34 -34 -53 -73 -35 -27 12
-34 38 -10 38 8 0 15 -4 15 -10 0 -5 9 -10 20 -10 31 0 23 23 -13 40 -37 17
-47 48 -21 67 22 16 39 16 65 3z m130 -9 c28 -22 18 -41 -11 -23 -11 7 -27 12
-35 12 -27 0 -16 -19 20 -34 19 -8 38 -22 42 -31 14 -39 -62 -64 -95 -31 -20
20 -7 34 18 18 26 -16 50 -15 50 2 0 7 -14 17 -31 22 -18 5 -37 17 -43 27 -9
15 -7 22 13 38 29 24 43 24 72 0z m132 8 c30 -16 37 -28 37 -65 0 -65 -87 -93
-122 -40 -22 32 -2 97 32 109 23 8 30 8 53 -4z m175 0 c21 1 22 -3 22 -64 0
-61 -1 -65 -22 -63 -13 1 -32 -2 -44 -5 -33 -11 -74 27 -74 68 0 41 42 80 75
70 11 -4 30 -6 43 -6z m130 -5 c25 -17 29 -34 7 -34 -8 0 -15 5 -15 10 0 6
-11 10 -25 10 -36 0 -31 -17 10 -34 46 -20 55 -44 25 -68 -24 -20 -54 -17 -79
8 -20 19 -5 31 19 16 26 -16 50 -15 50 2 0 8 -14 17 -30 21 -43 9 -56 39 -30
65 24 24 38 25 68 4z m-1606 -46 c3 -49 5 -53 28 -53 23 0 25 4 28 53 2 37 7
52 18 52 11 0 14 -15 14 -64 l0 -64 -36 -4 c-61 -7 -79 9 -82 75 -2 45 0 57
12 57 11 0 16 -14 18 -52z m485 -558 c155 -70 166 -393 22 -670 -139 -270
-377 -373 -485 -211 -38 59 -54 124 -54 226 0 317 231 671 440 674 19 0 54 -8
77 -19z m-250 -1188 c-15 -15 -27 -36 -27 -45 0 -9 -4 -17 -9 -17 -5 0 -17
-13 -28 -29 -10 -16 -22 -31 -28 -33 -5 -2 -9 -6 -7 -11 1 -4 -10 -20 -24 -36
-14 -16 -27 -33 -27 -37 -1 -4 -16 -23 -34 -42 -17 -19 -37 -47 -43 -63 -7
-16 -17 -29 -22 -29 -5 0 -6 -4 -3 -10 3 -5 2 -10 -2 -10 -5 0 -18 -7 -29 -16
-10 -8 -12 -12 -4 -8 8 3 3 -6 -13 -20 -15 -15 -25 -31 -22 -37 4 -5 2 -9 -3
-9 -5 0 -12 -9 -15 -20 -5 -20 -33 -37 -43 -27 -9 8 73 165 132 254 73 109
224 260 273 272 3 1 -7 -12 -22 -27z m-767 -180 l53 -48 -18 -35 c-10 -18 -23
-44 -29 -56 -6 -13 -14 -23 -18 -23 -5 0 -8 -7 -8 -15 0 -8 -11 -31 -25 -51
-14 -20 -25 -42 -25 -48 0 -6 -9 -22 -20 -36 l-20 -25 0 54 0 54 -23 -21 c-29
-28 -54 -28 -62 -1 -5 15 13 62 61 160 37 76 71 139 74 139 3 0 30 -22 60 -48z
m2138 -114 c7 -7 12 -38 12 -69 0 -49 -3 -59 -25 -73 -32 -21 -32 -21 -40 13
-8 39 -29 45 -61 17 -19 -16 -29 -36 -33 -66 -4 -28 -13 -47 -26 -54 -11 -6
-22 -13 -25 -16 -8 -8 -42 -28 -90 -51 -25 -13 -67 -37 -95 -54 -27 -17 -61
-36 -75 -43 -26 -12 -44 -23 -93 -56 -16 -10 -47 -28 -70 -40 -60 -32 -140
-77 -153 -87 -15 -12 -29 124 -15 148 11 21 738 443 761 443 9 0 21 -5 28 -12z
m-1742 -230 c4 -7 3 -8 -4 -4 -7 4 -12 2 -12 -3 0 -6 -4 -11 -10 -11 -5 0 -7
7 -4 15 7 18 20 19 30 3z m-26 -32 c0 -3 -4 -8 -10 -11 -5 -3 -10 -1 -10 4 0
6 5 11 10 11 6 0 10 -2 10 -4z m1578 -43 c-3 -24 -32 -44 -258 -175 -140 -81
-259 -148 -263 -148 -5 0 -7 12 -5 26 3 23 36 46 258 175 140 81 259 148 263
149 5 0 7 -12 5 -27z"/>
<path d="M3556 4327 c-26 -19 -18 -71 12 -75 46 -7 69 40 36 72 -19 19 -25 20
-48 3z"/>
<path d="M3328 4329 c-23 -13 -24 -65 -1 -78 40 -22 74 44 41 77 -14 14 -18
14 -40 1z"/>
<path d="M3797 4322 c-32 -35 -11 -77 35 -70 30 4 38 56 12 75 -23 17 -28 16
-47 -5z"/>
<path d="M4125 4316 c-23 -34 -5 -68 33 -64 22 2 28 9 30 33 3 19 -2 33 -14
42 -25 18 -31 17 -49 -11z"/>
<path d="M4357 4333 c-15 -15 -5 -23 29 -23 31 0 35 2 24 15 -13 16 -42 20
-53 8z"/>
<path d="M4735 4316 c-23 -34 -5 -68 33 -64 22 2 28 9 30 33 3 19 -2 33 -14
42 -25 18 -31 17 -49 -11z"/>
<path d="M5615 4324 c-9 -9 -15 -28 -13 -43 2 -20 9 -27 32 -29 44 -5 63 40
30 72 -20 20 -29 20 -49 0z"/>
<path d="M6077 4334 c-15 -15 -6 -24 24 -24 20 0 29 4 27 13 -5 14 -40 21 -51
11z"/>
<path d="M7385 4324 c-24 -24 -16 -68 13 -72 46 -7 69 40 36 72 -20 20 -29 20
-49 0z"/>
<path d="M3256 3785 c-4 -12 3 -15 29 -15 36 0 47 13 19 24 -26 10 -42 7 -48
-9z"/>
<path d="M3695 3776 c-23 -34 -5 -68 33 -64 22 2 28 9 30 33 3 19 -2 33 -14
42 -25 18 -31 17 -49 -11z"/>
<path d="M3932 3788 c-33 -33 1 -99 41 -77 31 18 17 89 -18 89 -6 0 -16 -5
-23 -12z"/>
<path d="M4505 3776 c-23 -34 -5 -68 33 -64 22 2 28 9 30 33 3 19 -2 33 -14
42 -25 18 -31 17 -49 -11z"/>
<path d="M3782 3268 c-31 -31 0 -85 42 -74 24 6 27 11 24 44 -3 31 -7 37 -28
40 -14 2 -31 -3 -38 -10z"/>
<path d="M3092 3273 c-17 -31 -15 -43 8 -43 21 0 24 12 11 45 -8 19 -8 19 -19
-2z"/>
<path d="M3237 3273 c-4 -3 -7 -21 -7 -39 0 -31 13 -44 46 -44 23 0 38 43 25
69 -11 20 -50 29 -64 14z"/>
<path d="M3477 3273 c-16 -15 -4 -23 34 -23 36 0 40 2 29 15 -13 15 -51 20
-63 8z"/>
<path d="M3940 3254 c-17 -44 19 -81 56 -56 18 12 24 42 14 63 -16 29 -58 25
-70 -7z"/>
<path d="M4170 3265 c-11 -13 -7 -15 30 -15 37 0 41 2 30 15 -7 8 -20 15 -30
15 -10 0 -23 -7 -30 -15z"/>
<path d="M4530 3266 c-28 -35 11 -93 48 -70 35 22 22 84 -18 84 -10 0 -23 -7
-30 -14z"/>
<path d="M4942 3271 c-18 -11 -11 -61 11 -75 22 -14 51 3 55 33 6 40 -32 64
-66 42z"/>
<path d="M5092 3268 c-31 -31 0 -85 42 -74 24 6 27 11 24 44 -3 31 -7 37 -28
40 -14 2 -31 -3 -38 -10z"/>
<path d="M5700 3265 c-11 -13 -7 -15 28 -15 33 0 40 3 36 15 -4 8 -16 15 -29
15 -12 0 -28 -7 -35 -15z"/>
<path d="M6061 3266 c-16 -20 -10 -56 12 -70 27 -17 52 4 52 45 0 29 -4 34
-26 37 -14 2 -31 -4 -38 -12z"/>
<path d="M6520 3265 c-11 -13 -7 -15 28 -15 33 0 40 3 36 15 -4 8 -16 15 -29
15 -12 0 -28 -7 -35 -15z"/>
<path d="M7120 3265 c-11 -13 -7 -15 28 -15 33 0 40 3 36 15 -4 8 -16 15 -29
15 -12 0 -28 -7 -35 -15z"/>
<path d="M7510 3259 c-15 -27 2 -69 27 -69 32 0 45 16 41 51 -2 28 -7 35 -30
37 -19 2 -30 -3 -38 -19z"/>
<path d="M3210 2905 c-18 -22 -2 -69 26 -73 28 -4 46 20 42 55 -2 22 -9 29
-29 31 -15 2 -31 -4 -39 -13z"/>
<path d="M3677 2913 c-4 -3 -7 -21 -7 -39 0 -28 4 -35 27 -40 41 -11 71 44 41
74 -13 13 -50 16 -61 5z"/>
<path d="M4162 2908 c-28 -28 -3 -84 34 -76 43 8 44 88 1 88 -13 0 -28 -5 -35
-12z"/>
<path d="M4522 2908 c-28 -28 -3 -84 34 -76 43 8 44 88 1 88 -13 0 -28 -5 -35
-12z"/>
<path d="M4677 2914 c-15 -16 -5 -24 29 -24 24 0 34 4 32 13 -5 13 -50 22 -61
11z"/>
<path d="M5069 2899 c-22 -42 20 -87 57 -61 18 12 24 42 14 63 -14 26 -56 25
-71 -2z"/>
<path d="M5232 2911 c-18 -11 -11 -61 11 -75 22 -14 51 3 55 33 6 40 -32 64
-66 42z"/>
<path d="M8967 6430 c-38 -30 -67 -98 -67 -157 0 -90 47 -109 110 -45 101 101
62 284 -43 202z"/>
<path d="M13042 5060 c-27 -11 -42 -47 -42 -101 0 -32 3 -39 20 -39 17 0 20 7
20 44 0 25 6 48 14 55 9 8 108 11 342 9 l329 -3 3 -174 c2 -172 3 -174 22
-156 18 16 20 31 20 166 0 81 -3 155 -6 164 -16 41 -48 45 -381 44 -175 0
-328 -4 -341 -9z"/>
<path d="M12210 4785 c0 -98 1 -105 20 -105 19 0 20 7 20 105 0 98 -1 105 -20
105 -19 0 -20 -7 -20 -105z"/>
<path d="M13457 4883 c-8 -13 -29 -154 -25 -159 8 -7 98 28 93 36 -3 4 12 22
33 39 30 25 33 30 17 31 -11 0 -37 -14 -58 -31 -21 -17 -40 -29 -43 -26 -3 3
-1 22 5 44 15 52 14 73 -3 73 -8 0 -17 -3 -19 -7z"/>
<path d="M12460 4850 c0 -11 -4 -20 -10 -20 -5 0 -10 -9 -10 -20 0 -11 5 -20
10 -20 6 0 10 -16 10 -36 0 -54 15 -74 55 -74 41 0 46 16 10 30 -20 8 -25 16
-25 45 0 28 4 35 20 35 13 0 20 7 20 20 0 13 -7 20 -20 20 -13 0 -20 7 -20 20
0 13 -7 20 -20 20 -13 0 -20 -7 -20 -20z"/>
<path d="M12299 4811 c-17 -13 -23 -29 -23 -56 0 -27 6 -43 23 -56 24 -20 86
-25 110 -10 23 15 3 30 -32 24 -23 -3 -37 0 -46 11 -12 14 -8 16 41 16 30 0
57 3 61 6 10 10 -14 64 -33 74 -29 16 -76 12 -101 -9z m89 -28 c2 -9 -8 -13
-32 -13 -34 0 -44 8 -29 24 11 11 56 2 61 -11z"/>
<path d="M12570 4754 c0 -67 2 -74 20 -74 17 0 20 7 20 44 0 38 18 76 35 76
17 0 35 -38 35 -76 0 -37 3 -44 20 -44 17 0 20 7 20 49 0 52 16 76 44 65 12
-5 16 -19 16 -60 0 -51 1 -54 25 -54 24 0 25 3 25 53 0 67 -20 97 -64 97 -17
0 -37 -5 -44 -12 -8 -8 -15 -8 -24 0 -7 6 -39 10 -71 10 l-57 -1 0 -73z"/>
<path d="M12872 4807 c-29 -31 -29 -80 0 -107 28 -26 113 -26 113 0 0 11 -9
14 -36 12 -23 -2 -40 2 -49 12 -11 14 -6 16 49 16 53 0 61 2 61 19 0 10 -9 30
-21 45 -27 35 -86 36 -117 3z m88 -22 c11 -13 7 -15 -30 -15 -37 0 -41 2 -30
15 7 8 20 15 30 15 10 0 23 -7 30 -15z"/>
<path d="M13115 4805 c-30 -29 -33 -77 -6 -104 15 -15 33 -19 73 -19 l54 1 16
73 c15 71 14 74 -3 74 -11 0 -19 -5 -19 -10 0 -7 -6 -7 -19 0 -33 17 -71 11
-96 -15z m95 -24 c7 -14 7 -27 -2 -46 -9 -21 -18 -25 -42 -23 -26 3 -32 8 -34
33 -6 48 56 77 78 36z"/>
<path d="M13299 4809 c-11 -11 -18 -26 -16 -32 4 -12 36 -31 72 -42 19 -6 19
-7 2 -20 -12 -8 -32 -11 -53 -8 -40 7 -48 -13 -10 -23 31 -7 95 13 103 32 7
20 -13 42 -48 49 -45 10 -37 35 10 35 42 0 62 14 35 24 -32 12 -74 6 -95 -15z"/>
<path d="M13004 4558 c12 -64 26 -68 245 -68 140 0 200 -3 209 -12 9 -9 15 -9
25 1 10 10 8 15 -7 27 -16 11 -61 14 -216 14 -207 0 -220 3 -220 47 0 17 -6
23 -21 23 -19 0 -21 -4 -15 -32z"/>
<path d="M11795 3703 c-31 -8 -45 -23 -45 -51 0 -24 1 -25 20 -7 15 13 30 16
59 12 28 -3 44 -1 52 10 10 12 10 16 -2 24 -8 5 -19 9 -26 9 -6 0 -17 2 -25 4
-7 2 -22 1 -33 -1z"/>
<path d="M12240 3639 c0 -5 5 -7 10 -4 6 3 10 8 10 11 0 2 -4 4 -10 4 -5 0
-10 -5 -10 -11z"/>
<path d="M12950 3590 c0 -33 4 -60 10 -60 6 0 10 27 10 60 0 33 -4 60 -10 60
-6 0 -10 -27 -10 -60z"/>
<path d="M14130 3590 c0 -33 4 -60 10 -60 6 0 10 27 10 60 0 33 -4 60 -10 60
-6 0 -10 -27 -10 -60z"/>
<path d="M12068 3629 c-22 -13 -24 -62 -2 -83 20 -20 58 -21 74 -1 15 18 7 19
-21 4 -16 -8 -25 -7 -40 7 -10 9 -19 23 -19 30 0 21 31 46 49 39 48 -20 47
-20 32 -2 -15 19 -47 22 -73 6z"/>
<path d="M13706 3624 c-33 -33 -7 -94 41 -94 21 0 53 29 53 48 0 7 -14 11 -32
11 -24 -1 -27 -3 -10 -6 26 -5 29 -18 5 -32 -41 -22 -74 39 -37 70 13 10 19
10 36 0 11 -7 23 -10 26 -6 9 9 -19 25 -45 25 -12 0 -29 -7 -37 -16z"/>
<path d="M12182 3570 c1 -37 2 -39 5 -12 3 18 11 36 19 39 21 8 17 19 -6 19
-17 0 -20 -6 -18 -46z"/>
<path d="M12243 3575 c0 -27 2 -38 4 -22 2 15 2 37 0 50 -2 12 -4 0 -4 -28z"/>
<path d="M12285 3596 c-13 -20 -14 -29 -5 -46 13 -25 60 -25 68 0 4 12 3 13
-10 2 -9 -7 -23 -10 -32 -6 -28 11 -17 24 19 24 36 0 46 15 23 38 -19 19 -46
14 -63 -12z m55 -6 c0 -5 -12 -10 -26 -10 -14 0 -23 4 -19 10 3 6 15 10 26 10
10 0 19 -4 19 -10z"/>
<path d="M12427 3614 c-15 -15 -6 -35 20 -45 19 -7 23 -13 15 -21 -8 -8 -16
-7 -28 3 -15 12 -17 12 -12 -1 7 -21 52 -19 56 2 2 12 -6 21 -22 28 -33 12
-34 24 -1 17 16 -3 24 0 22 7 -4 13 -40 20 -50 10z"/>
<path d="M12506 3608 c-4 -10 -4 -30 1 -45 8 -22 16 -28 41 -29 32 -1 32 0 31
45 -2 34 -3 38 -6 16 -10 -64 -50 -69 -55 -7 -3 28 -6 33 -12 20z"/>
<path d="M12614 3595 c-24 -36 -4 -66 41 -62 34 2 35 4 35 42 0 37 -2 40 -30
42 -22 2 -34 -4 -46 -22z m59 -9 c3 -8 -1 -22 -8 -33 -13 -17 -15 -17 -31 -1
-9 9 -14 24 -11 32 8 20 43 21 50 2z"/>
<path d="M12767 3614 c-14 -15 -6 -34 19 -47 18 -9 23 -16 15 -21 -7 -4 -19
-2 -28 6 -14 11 -15 11 -11 -2 7 -21 52 -19 56 2 2 12 -6 21 -22 28 -33 12
-34 24 -1 17 16 -3 24 0 22 7 -4 13 -40 20 -50 10z"/>
<path d="M12852 3608 c-16 -16 -15 -53 1 -66 7 -6 27 -10 45 -10 31 1 32 3 32
43 0 40 -1 42 -33 43 -19 1 -39 -4 -45 -10z m56 -32 c2 -10 -2 -22 -9 -26 -20
-13 -39 0 -39 27 0 20 4 24 22 21 13 -2 24 -11 26 -22z"/>
<path d="M13002 3608 c-16 -16 -15 -53 1 -66 7 -6 27 -10 45 -10 31 1 32 3 32
43 0 40 -1 42 -33 43 -19 1 -39 -4 -45 -10z m58 -32 c0 -25 -15 -36 -37 -29
-7 3 -13 16 -13 29 0 19 5 24 25 24 20 0 25 -5 25 -24z"/>
<path d="M13152 3608 c-17 -17 -15 -53 3 -68 16 -13 65 -6 65 10 0 13 -13 13
-27 -1 -16 -16 -33 -2 -33 28 0 23 3 25 31 19 27 -5 30 -4 19 9 -15 18 -42 19
-58 3z"/>
<path d="M13250 3606 c-28 -35 11 -93 48 -70 35 22 22 84 -18 84 -10 0 -23 -7
-30 -14z m57 -22 c3 -8 -2 -23 -11 -32 -15 -15 -17 -15 -32 0 -21 21 -11 48
16 48 11 0 23 -7 27 -16z"/>
<path d="M13340 3573 c0 -23 5 -43 10 -43 6 0 10 16 10 36 0 31 3 35 23 32 17
-2 23 -11 28 -38 l6 -35 4 35 c3 27 9 36 27 38 19 3 22 -1 22 -32 0 -20 5 -36
10 -36 13 0 13 46 0 70 -8 14 -22 18 -75 17 l-65 0 0 -44z"/>
<path d="M13560 3606 c-28 -35 11 -93 48 -70 35 22 22 84 -18 84 -10 0 -23 -7
-30 -14z m57 -22 c3 -8 -2 -23 -11 -32 -15 -15 -17 -15 -32 0 -21 21 -11 48
16 48 11 0 23 -7 27 -16z"/>
<path d="M13825 3600 c-15 -17 -16 -24 -7 -45 20 -43 82 -28 82 20 0 45 -44
59 -75 25z m55 -24 c0 -14 -4 -27 -9 -30 -15 -10 -41 5 -41 23 0 23 9 31 32
31 12 0 18 -7 18 -24z"/>
<path d="M13932 3608 c-7 -7 -12 -25 -12 -40 0 -21 6 -29 25 -34 31 -8 55 10
55 40 0 26 -18 46 -40 46 -9 0 -21 -5 -28 -12z m55 -23 c2 -6 -3 -20 -11 -30
-14 -19 -16 -19 -32 -3 -22 22 -11 50 18 46 12 -2 23 -8 25 -13z"/>
<path d="M14032 3608 c-30 -30 -2 -86 38 -75 13 3 20 0 20 -9 0 -19 -28 -30
-43 -15 -17 17 -31 13 -17 -4 18 -22 57 -19 70 5 6 12 10 39 8 62 -3 38 -6 42
-33 45 -17 2 -36 -2 -43 -9z m55 -24 c3 -8 -2 -23 -11 -32 -16 -16 -18 -16
-31 1 -7 11 -11 25 -8 33 7 19 42 18 50 -2z"/>
<path d="M14182 3608 c-7 -7 -12 -21 -12 -33 0 -41 45 -60 70 -30 14 17 0 21
-17 4 -6 -6 -16 -8 -22 -5 -21 13 -11 26 19 26 18 0 30 5 30 13 0 18 -21 37
-40 37 -9 0 -21 -5 -28 -12z m48 -18 c0 -5 -9 -10 -20 -10 -11 0 -20 5 -20 10
0 6 9 10 20 10 11 0 20 -4 20 -10z"/>
<path d="M11430 1797 c-46 -23 -51 -47 -48 -249 3 -180 4 -188 26 -210 l23
-23 1549 0 1549 0 23 23 c22 22 23 28 23 222 0 194 -1 200 -23 222 l-23 23
-1537 2 c-1220 2 -1542 0 -1562 -10z m1018 -159 c7 -7 12 -40 12 -79 0 -73
-12 -93 -52 -87 -30 4 -30 22 0 26 20 3 22 9 22 63 0 52 -2 59 -19 59 -21 0
-34 13 -24 24 11 10 48 7 61 -6z m200 -35 c2 -8 -6 -13 -22 -13 -14 0 -26 -4
-26 -10 0 -5 9 -10 20 -10 11 0 20 -7 20 -15 0 -8 -9 -15 -20 -15 -11 0 -20
-4 -20 -10 0 -5 11 -10 25 -10 14 0 25 -4 25 -10 0 -5 -16 -10 -35 -10 l-35 0
0 61 0 60 32 -3 c17 -2 33 -9 36 -15z m922 -43 c0 -33 -4 -60 -10 -60 -6 0
-10 27 -10 60 0 33 4 60 10 60 6 0 10 -27 10 -60z m-1181 23 l21 -26 -22 -24
c-21 -22 -48 -31 -48 -15 0 4 5 13 12 20 9 9 4 12 -24 12 -20 0 -40 5 -43 10
-4 6 11 10 36 10 34 0 40 3 31 12 -16 16 -15 28 2 28 8 0 24 -12 35 -27z m411
17 c0 -5 18 -10 40 -10 40 0 53 -13 25 -24 -9 -3 -15 -18 -15 -36 0 -28 -2
-30 -39 -30 -38 0 -39 1 -43 43 -3 23 -3 48 0 55 5 14 32 16 32 2z m-56 -26
c12 -31 7 -74 -9 -74 -10 0 -15 11 -15 35 0 24 -5 35 -15 35 -10 0 -15 -11
-15 -35 0 -24 -5 -35 -15 -35 -11 0 -15 12 -15 45 l0 45 39 0 c26 0 41 -5 45
-16z m236 -28 c0 -41 -2 -44 -30 -48 -37 -6 -70 16 -70 46 0 32 19 46 62 46
l38 0 0 -44z m70 35 c0 -5 -7 -11 -15 -15 -9 -3 -15 -18 -15 -36 0 -20 -5 -30
-15 -30 -11 0 -15 12 -15 45 0 43 1 45 30 45 17 0 30 -4 30 -9z m130 -10 c15
-29 13 -71 -4 -71 -9 0 -16 12 -18 33 -2 20 -8 32 -18 32 -10 0 -16 -12 -18
-32 -5 -49 -22 -40 -22 12 0 45 0 45 35 45 24 0 37 -6 45 -19z m110 -25 c0
-38 -3 -44 -23 -48 -43 -8 -67 8 -67 45 0 43 5 47 52 47 l38 0 0 -44z m128 25
c3 -10 -2 -11 -18 -6 -15 5 -20 4 -16 -4 4 -6 13 -11 21 -11 20 0 26 -28 9
-45 -18 -18 -20 -18 -45 -5 -28 16 -23 31 9 25 l27 -6 -27 16 c-27 15 -35 34
-21 49 12 11 56 2 61 -13z m112 -25 c0 -41 -2 -44 -32 -48 -51 -8 -89 47 -56
80 7 7 29 12 50 12 l38 0 0 -44z m150 0 c0 -41 -2 -44 -32 -48 -31 -5 -68 18
-68 43 0 31 22 49 60 49 l40 0 0 -44z"/>
<path d="M12800 1545 c0 -14 5 -25 10 -25 6 0 10 11 10 25 0 14 -4 25 -10 25
-5 0 -10 -11 -10 -25z"/>
<path d="M12914 1556 c-7 -19 3 -36 22 -36 10 0 14 8 12 22 -4 26 -26 36 -34
14z"/>
<path d="M13226 1554 c-4 -10 -2 -22 3 -27 14 -14 43 0 39 20 -4 24 -34 28
-42 7z"/>
<path d="M13464 1556 c-7 -19 3 -36 22 -36 10 0 14 8 12 22 -4 26 -26 36 -34
14z"/>
<path d="M13614 1556 c-7 -19 3 -36 22 -36 10 0 14 8 12 22 -4 26 -26 36 -34
14z"/>
</g>
</svg>
